<svg width="20" height="20" viewBox="0 0 25 25" fill="none" xmlns="http://www.w3.org/2000/svg">
<g clip-path="url(#clip0)">
<path d="M12.3467 15.5886C14.0035 15.5886 15.3467 14.2455 15.3467 12.5886C15.3467 10.9318 14.0035 9.58862 12.3467 9.58862C10.6898 9.58862 9.34668 10.9318 9.34668 12.5886C9.34668 14.2455 10.6898 15.5886 12.3467 15.5886Z" stroke="#1c1c1e" stroke-width="2" stroke-linecap="round" stroke-linejoin="round"/>
<path d="M19.7467 15.5886C19.6136 15.8902 19.5739 16.2248 19.6327 16.5492C19.6915 16.8736 19.8461 17.1729 20.0767 17.4086L20.1367 17.4686C20.3226 17.6544 20.4702 17.8749 20.5708 18.1177C20.6714 18.3605 20.7233 18.6208 20.7233 18.8836C20.7233 19.1465 20.6714 19.4067 20.5708 19.6495C20.4702 19.8923 20.3226 20.1129 20.1367 20.2986C19.9509 20.4846 19.7304 20.6321 19.4876 20.7327C19.2448 20.8334 18.9845 20.8852 18.7217 20.8852C18.4588 20.8852 18.1986 20.8334 17.9558 20.7327C17.713 20.6321 17.4924 20.4846 17.3067 20.2986L17.2467 20.2386C17.011 20.0081 16.7117 19.8534 16.3873 19.7946C16.0629 19.7358 15.7283 19.7755 15.4267 19.9086C15.1309 20.0354 14.8787 20.2459 14.701 20.5142C14.5233 20.7824 14.428 21.0968 14.4267 21.4186V21.5886C14.4267 22.1191 14.216 22.6278 13.8409 23.0028C13.4658 23.3779 12.9571 23.5886 12.4267 23.5886C11.8962 23.5886 11.3875 23.3779 11.0125 23.0028C10.6374 22.6278 10.4267 22.1191 10.4267 21.5886V21.4986C10.4189 21.1676 10.3118 20.8466 10.1192 20.5773C9.92658 20.308 9.65741 20.1029 9.34668 19.9886C9.04506 19.8555 8.71049 19.8158 8.38609 19.8746C8.0617 19.9334 7.76236 20.0881 7.52668 20.3186L7.46668 20.3786C7.28093 20.5646 7.06036 20.7121 6.81756 20.8127C6.57476 20.9134 6.31451 20.9652 6.05168 20.9652C5.78885 20.9652 5.5286 20.9134 5.2858 20.8127C5.043 20.7121 4.82243 20.5646 4.63668 20.3786C4.45073 20.1929 4.30321 19.9723 4.20256 19.7295C4.10191 19.4867 4.05011 19.2265 4.05011 18.9636C4.05011 18.7008 4.10191 18.4405 4.20256 18.1977C4.30321 17.9549 4.45073 17.7344 4.63668 17.5486L4.69668 17.4886C4.92722 17.2529 5.08187 16.9536 5.14068 16.6292C5.1995 16.3048 5.15979 15.9702 5.02668 15.6686C4.89992 15.3729 4.68944 15.1206 4.42114 14.9429C4.15285 14.7653 3.83847 14.6699 3.51668 14.6686H3.34668C2.81625 14.6686 2.30754 14.4579 1.93247 14.0828C1.55739 13.7078 1.34668 13.1991 1.34668 12.6686C1.34668 12.1382 1.55739 11.6295 1.93247 11.2544C2.30754 10.8793 2.81625 10.6686 3.34668 10.6686H3.43668C3.76767 10.6609 4.08868 10.5537 4.35798 10.3611C4.62727 10.1685 4.8324 9.89936 4.94668 9.58862C5.07979 9.28701 5.1195 8.95243 5.06068 8.62803C5.00187 8.30364 4.84722 8.0043 4.61668 7.76862L4.55668 7.70862C4.37073 7.52288 4.22321 7.3023 4.12256 7.0595C4.02191 6.81671 3.97011 6.55645 3.97011 6.29362C3.97011 6.03079 4.02191 5.77054 4.12256 5.52774C4.22321 5.28495 4.37073 5.06437 4.55668 4.87862C4.74243 4.69267 4.963 4.54515 5.2058 4.4445C5.4486 4.34385 5.70885 4.29205 5.97168 4.29205C6.23451 4.29205 6.49476 4.34385 6.73756 4.4445C6.98036 4.54515 7.20093 4.69267 7.38668 4.87862L7.44668 4.93862C7.68236 5.16916 7.9817 5.32381 8.30609 5.38263C8.63049 5.44145 8.96506 5.40174 9.26668 5.26862H9.34668C9.64245 5.14186 9.8947 4.93138 10.0724 4.66309C10.25 4.3948 10.3454 4.08041 10.3467 3.75862V3.58862C10.3467 3.05819 10.5574 2.54948 10.9325 2.17441C11.3075 1.79934 11.8162 1.58862 12.3467 1.58862C12.8771 1.58862 13.3858 1.79934 13.7609 2.17441C14.136 2.54948 14.3467 3.05819 14.3467 3.58862V3.67862C14.348 4.00041 14.4433 4.3148 14.621 4.58309C14.7987 4.85138 15.0509 5.06186 15.3467 5.18862C15.6483 5.32174 15.9829 5.36145 16.3073 5.30263C16.6317 5.24381 16.931 5.08916 17.1667 4.85862L17.2267 4.79862C17.4124 4.61267 17.633 4.46515 17.8758 4.3645C18.1186 4.26386 18.3788 4.21205 18.6417 4.21205C18.9045 4.21205 19.1648 4.26386 19.4076 4.3645C19.6504 4.46515 19.8709 4.61267 20.0567 4.79862C20.2426 4.98437 20.3902 5.20495 20.4908 5.44774C20.5914 5.69054 20.6433 5.95079 20.6433 6.21362C20.6433 6.47645 20.5914 6.73671 20.4908 6.9795C20.3902 7.2223 20.2426 7.44288 20.0567 7.62862L19.9967 7.68862C19.7661 7.9243 19.6115 8.22364 19.5527 8.54803C19.4939 8.87243 19.5336 9.20701 19.6667 9.50862V9.58862C19.7934 9.88439 20.0039 10.1366 20.2722 10.3143C20.5405 10.492 20.8549 10.5873 21.1767 10.5886H21.3467C21.8771 10.5886 22.3858 10.7993 22.7609 11.1744C23.136 11.5495 23.3467 12.0582 23.3467 12.5886C23.3467 13.1191 23.136 13.6278 22.7609 14.0028C22.3858 14.3779 21.8771 14.5886 21.3467 14.5886H21.2567C20.9349 14.5899 20.6205 14.6853 20.3522 14.8629C20.0839 15.0406 19.8734 15.2929 19.7467 15.5886V15.5886Z" stroke="#1c1c1e" stroke-width="2" stroke-linecap="round" stroke-linejoin="round"/>
</g>
<defs>
<clipPath id="clip0">
<rect width="24" height="24" fill="white" transform="translate(0.34668 0.588623)"/>
</clipPath>
</defs>
</svg>
